# File created by Blade
# Date/Time:  Tue Apr 07 21:25:43 2015
#---------------------------------------------------------
:version 1.10
:name HOM
:units
  mass 1.0
  length 1.000000
  angle deg
:documentation
     Acclaim Skeleton File
:root
   axis xyz
   order TX TY TZ RX RY RZ
   position 0.000000 0.000000 0.000000
   orientation 0 0 0
:bonedata
   begin
      id 1
      name Spine_dum
      direction 0.000000 1.000000 0.000000
      length 4.885285
      axis 0.0 0.0 0.0 xyz
   end
   begin
      id 2
      name LeftUpLeg_dum
      direction 1.000000 0.000000 0.000000
      length 2.672193
      axis 0.0 0.0 0.0 xyz
   end
   begin
      id 3
      name RightUpLeg_dum
      direction -1.000000 0.000000 0.000000
      length 2.672193
      axis 0.0 0.0 0.0 xyz
   end
   begin
      id 4
      name Spine
      direction 0.000000 1.000000 0.000000
      length 0.000000
      axis 0.0 0.0 0.0 xyz
      dof rx ry rz
   end
   begin
      id 5
      name Spine_dum1
      direction 0.000000 1.000000 0.000000
      length 16.494159
      axis 0.0 0.0 0.0 xyz
   end
   begin
      id 6
      name Spine_dum2
      direction 0.000000 1.000000 0.000000
      length 10.663448
      axis 0.0 0.0 0.0 xyz
   end
   begin
      id 7
      name Spine_dum3
      direction 0.000000 1.000000 0.000000
      length 10.663448
      axis 0.0 0.0 0.0 xyz
   end
   begin
      id 8
      name Head
      direction 0.000000 1.000000 0.000000
      length 4.527550
      axis 0.0 0.0 0.0 xyz
      dof rx ry rz
   end
   begin
      id 9
      name LeftShoulder
      direction 1.000000 0.000000 0.000000
      length 7.531907
      axis 0.0 0.0 -90.0 xyz
      dof rx ry rz
   end
   begin
      id 10
      name LeftArm
      direction 1.000000 0.000000 0.000000
      length 10.229199
      axis 0.0 0.0 -90.0 xyz
      dof rx ry rz
   end
   begin
      id 11
      name LeftForeArm
      direction 1.000000 0.000000 0.000000
      length 8.673495
      axis 0.0 0.0 -90.0 xyz
      dof ry rz rx
   end
   begin
      id 12
      name LeftHand
      direction 0.000000 0.000000 0.000000
      length 0.000000
      axis 0.0 0.0 -90.0 xyz
      dof rx ry rz
   end
   begin
      id 13
      name LeftHand_dum1
      direction 0.000000 0.000000 0.000000
      length 0.000000
      axis 0.0 0.0 -90.0 xyz
   end
   begin
      id 14
      name LeftHand_dum2
      direction 1.000000 0.000000 0.000000
      length 3.937000
      axis 0.0 0.0 -90.0 xyz
   end
   begin
      id 15
      name LeftHandThumb1
      direction 0.000000 0.000000 1.000000
      length 3.937000
      axis 0.0 0.0 -90.0 xyz
      dof rx rz ry
   end
   begin
      id 16
      name RightShoulder
      direction -1.000000 0.000000 0.000000
      length 7.531907
      axis 0.0 0.0 90.0 xyz
      dof rx ry rz
   end
   begin
      id 17
      name RightArm
      direction -1.000000 0.000000 0.000000
      length 10.229199
      axis 0.0 0.0 90.0 xyz
      dof rx ry rz
   end
   begin
      id 18
      name RightForeArm
      direction -1.000000 0.000000 0.000000
      length 8.673495
      axis 0.0 0.0 90.0 xyz
      dof ry rz rx
   end
   begin
      id 19
      name RightHand
      direction 0.000000 0.000000 0.000000
      length 0.000000
      axis 0.0 0.0 90.0 xyz
      dof rx ry rz
   end
   begin
      id 20
      name RightHand_dum1
      direction 0.000000 0.000000 0.000000
      length 0.000000
      axis 0.0 0.0 90.0 xyz
   end
   begin
      id 21
      name RightHand_dum2
      direction -1.000000 0.000000 0.000000
      length 3.937000
      axis 0.0 0.0 90.0 xyz
   end
   begin
      id 22
      name RightHandThumb1
      direction 0.000000 0.000000 1.000000
      length 3.937000
      axis 0.0 0.0 90.0 xyz
      dof rx rz ry
   end
   begin
      id 23
      name LeftUpLeg
      direction 0.000000 -1.000000 0.000000
      length 16.263388
      axis 0.0 0.0 0.0 xyz
      dof rx ry rz
   end
   begin
      id 24
      name LeftLeg
      direction 0.000000 -1.000000 0.000000
      length 14.328163
      axis 0.0 0.0 0.0 xyz
      dof rx ry rz
   end
   begin
      id 25
      name LeftFoot
      direction 0.000000 -0.258819 0.965926
      length 5.031290
      axis 15.0 0.0 0.0 xyz
      dof rx ry rz
   end
   begin
      id 26
      name LeftToeBase
      direction 0.000000 0.000000 1.000000
      length 2.952750
      axis 0.0 0.0 0.0 xyz
      dof rx ry rz
   end
   begin
      id 27
      name RightUpLeg
      direction 0.000000 -1.000000 0.000000
      length 16.263388
      axis 0.0 0.0 0.0 xyz
      dof rx ry rz
   end
   begin
      id 28
      name RightLeg
      direction 0.000000 -1.000000 0.000000
      length 14.328163
      axis 0.0 0.0 0.0 xyz
      dof rx ry rz
   end
   begin
      id 29
      name RightFoot
      direction 0.000000 -0.258819 0.965926
      length 5.031290
      axis 15.0 0.0 0.0 xyz
      dof rx ry rz
   end
   begin
      id 30
      name RightToeBase
      direction 0.000000 0.000000 1.000000
      length 2.952750
      axis 0.0 0.0 0.0 xyz
      dof rx ry rz
   end
:hierarchy
   begin
      root Spine_dum LeftUpLeg_dum RightUpLeg_dum
      Spine_dum Spine
      LeftUpLeg_dum LeftUpLeg
      RightUpLeg_dum RightUpLeg
      Spine Spine_dum1 Spine_dum2 Spine_dum3
      Spine_dum1 Head
      Spine_dum2 LeftShoulder
      Spine_dum3 RightShoulder
      LeftShoulder LeftArm
      LeftArm LeftForeArm
      LeftForeArm LeftHand
      LeftHand LeftHand_dum1 LeftHand_dum2
      LeftHand_dum1 LeftHandThumb1
      RightShoulder RightArm
      RightArm RightForeArm
      RightForeArm RightHand
      RightHand RightHand_dum1 RightHand_dum2
      RightHand_dum1 RightHandThumb1
      LeftUpLeg LeftLeg
      LeftLeg LeftFoot
      LeftFoot LeftToeBase
      RightUpLeg RightLeg
      RightLeg RightFoot
      RightFoot RightToeBase
   end

# File created by Blade
# Date/Time:  Tue Apr 07 21:25:57 2015
# Frame Rate: 120.000 fps
#------------------------------------------------------
:FULLY-SPECIFIED
:DEGREES
77
root 0.822777 33.356305 0.102191 8.955000 6.065854 6.103178
Spine -3.512607 -7.039486 -3.973737
Head 35.893411 13.899199 6.083655
LeftShoulder -25.970054 48.215701 1.536733
LeftArm 62.180761 -26.005932 -76.184678
LeftForeArm 6.785629 -0.000000 -3.037912
LeftHand 4.589395 0.000000 5.852019
LeftHandThumb1 -26.253704 0.000000 33.147579
RightShoulder -10.568492 -9.104797 -21.738334
RightArm 6.407196 14.213409 61.537939
RightForeArm -7.664963 -0.000000 1.733110
RightHand 6.044377 -0.000000 -3.938131
RightHandThumb1 -24.326973 -0.000000 -32.862282
LeftUpLeg -6.156687 -9.029293 -1.485607
LeftLeg -0.535069 -0.000000 0.000000
LeftFoot -3.056509 11.801479 -17.385037
LeftToeBase -12.465692 -0.000000 0.000000
RightUpLeg -4.075116 1.168063 -6.143600
RightLeg 3.288413 -0.000000 -0.000000
RightFoot -8.295740 -11.911656 12.913428
RightToeBase -6.168996 -0.000000 0.000000
78
root 0.871105 33.354996 0.107758 9.060344 6.183158 6.082121
Spine -3.439398 -7.226152 -3.908463
Head 35.869501 13.717947 6.044524
LeftShoulder -25.854979 48.206740 1.408402
LeftArm 61.849120 -24.859350 -76.456227
LeftForeArm 6.792337 -0.000000 -3.238577
LeftHand 4.684515 -0.000000 6.004451
LeftHandThumb1 -26.253704 0.000000 33.147579
RightShoulder -10.587036 -9.435983 -21.433209
RightArm 6.455649 13.653037 62.401872
RightForeArm -6.797893 -0.000000 1.613916
RightHand 5.690004 -0.000000 -3.321892
RightHandThumb1 -24.326973 -0.000000 -32.862282
LeftUpLeg -6.583070 -9.013573 -0.815680
LeftLeg -0.447756 -0.000000 0.000000
LeftFoot -2.647929 11.690892 -17.187389
LeftToeBase -12.631999 -0.000000 0.000000
RightUpLeg -4.323649 1.175403 -6.195966
RightLeg 3.679180 -0.000000 -0.000000
RightFoot -8.455750 -11.946526 12.966211
RightToeBase -6.219143 -0.000000 0.000000
79
root 0.927898 33.353673 0.122681 9.116886 6.263128 6.098902
Spine -3.340109 -7.328896 -3.891868
Head 35.852878 13.379881 5.988468
LeftShoulder -25.627073 48.243085 1.366252
LeftArm 61.531656 -23.795779 -76.869694
LeftForeArm 6.677063 -0.000000 -3.316344
LeftHand 4.703709 0.000000 5.635498
LeftHandThumb1 -26.253704 0.000000 33.147579
RightShoulder -10.685000 -9.751642 -21.125855
RightArm 6.508224 13.013141 63.242303
RightForeArm -5.895594 -0.000000 1.513311
RightHand 5.491635 -0.000000 -2.791851
RightHandThumb1 -24.326973 -0.000000 -32.862282
LeftUpLeg -6.924677 -8.992805 -0.193081
LeftLeg -0.410973 -0.000000 0.000000
LeftFoot -2.193759 11.605081 -17.192719
LeftToeBase -12.691530 -0.000000 0.000000
RightUpLeg -4.487111 1.153421 -6.303828
RightLeg 4.022300 -0.000000 -0.000000
RightFoot -8.592222 -11.895767 12.982115
RightToeBase -6.203707 -0.000000 0.000000
80
root 0.982250 33.350352 0.131847 9.191440 6.348583 6.069090
Spine -3.251821 -7.560912 -3.814569
Head 35.832775 13.197975 5.905162
LeftShoulder -25.521876 48.280521 1.237400
LeftArm 61.185784 -22.757362 -77.277629
LeftForeArm 6.461026 -0.000000 -3.364125
LeftHand 4.801250 -0.000000 5.494033
LeftHandThumb1 -26.253704 0.000000 33.147579
RightShoulder -10.688935 -10.036835 -20.884445
RightArm 6.619318 12.432217 64.151999
RightForeArm -5.061336 0.000000 1.433236
RightHand 5.324754 -0.000000 -2.134419
RightHandThumb1 -24.326973 -0.000000 -32.862282
LeftUpLeg -7.343149 -8.944143 0.505096
LeftLeg -0.300553 -0.000000 0.000000
LeftFoot -1.799606 11.503073 -17.003766
LeftToeBase -12.318698 -0.000000 0.000000
RightUpLeg -4.704524 1.195234 -6.363800
RightLeg 4.418179 -0.000000 -0.000000
RightFoot -8.775298 -11.917699 13.027885
RightToeBase -6.130086 -0.000000 0.000000
81
root 1.039803 33.345644 0.142322 9.237685 6.388194 6.056476
Spine -3.126862 -7.771936 -3.768502
Head 35.746221 13.011756 5.783722
LeftShoulder -25.479713 48.285895 1.049964
LeftArm 60.888128 -21.752066 -77.648157
LeftForeArm 6.220934 -0.000000 -3.425117
LeftHand 4.890998 -0.000000 5.419650
LeftHandThumb1 -26.253704 0.000000 33.147579
RightShoulder -10.685886 -10.232315 -20.688292
RightArm 6.657415 12.021005 65.115032
RightForeArm -4.612163 -0.000000 1.443775
RightHand 5.157904 0.000000 -1.660235
RightHandThumb1 -24.326973 -0.000000 -32.862282
LeftUpLeg -7.640154 -9.217849 1.251855
LeftLeg -0.404121 -0.000000 0.000000
LeftFoot -1.387373 11.661652 -17.144253
LeftToeBase -12.216234 -0.000000 0.000000
RightUpLeg -4.919305 1.245925 -6.450700
RightLeg 4.867519 -0.000000 -0.000000
RightFoot -8.980304 -11.944205 13.082063
RightToeBase -6.379777 -0.000000 0.000000
82
root 1.097679 33.340619 0.156656 9.244786 6.395375 6.013331
Spine -2.980382 -7.910538 -3.706520
Head 35.668417 12.751396 5.640176
LeftShoulder -25.321190 48.254913 0.950855
LeftArm 60.460258 -20.689365 -77.808825
LeftForeArm 6.008391 -0.000000 -3.416983
LeftHand 4.878170 -0.000000 5.039216
LeftHandThumb1 -26.253704 0.000000 33.147579
RightShoulder -10.717773 -10.391620 -20.503965
RightArm 6.656158 11.765322 66.103433
RightForeArm -4.395669 -0.000000 1.502613
RightHand 4.982936 -0.000000 -1.264702
RightHandThumb1 -24.326973 -0.000000 -32.862282
LeftUpLeg -7.974832 -9.164221 1.992572
LeftLeg -0.352843 -0.000000 0.000000
LeftFoot -0.938274 11.558924 -17.392410
LeftToeBase -11.961333 -0.000000 0.000000
RightUpLeg -5.096764 1.349260 -6.512826
RightLeg 5.300940 -0.000000 -0.000000
RightFoot -9.162934 -11.957135 13.182442
RightToeBase -6.480429 -0.000000 0.000000
83
root 1.156815 33.334751 0.169399 9.278088 6.381402 5.975285
Spine -2.873021 -8.084501 -3.657613
Head 35.605634 12.499475 5.476026
LeftShoulder -25.288066 48.259664 0.759625
LeftArm 60.084309 -19.560885 -77.825979
LeftForeArm 5.611028 -0.000000 -3.406996
LeftHand 4.500792 -0.000000 4.570894
LeftHandThumb1 -26.253704 0.000000 33.147579
RightShoulder -10.712860 -10.558076 -20.346793
RightArm 6.684350 11.535968 67.130104
RightForeArm -4.046382 -0.000000 1.487895
RightHand 5.502133 -0.000000 -1.241514
RightHandThumb1 -24.326973 -0.000000 -32.862282
LeftUpLeg -8.362129 -9.037960 2.723660
LeftLeg -0.264013 -0.000000 0.000000
LeftFoot -0.462874 11.494561 -17.623931
LeftToeBase -11.609534 -0.000000 0.000000
RightUpLeg -5.322376 1.448350 -6.578533
RightLeg 5.763186 -0.000000 -0.000000
RightFoot -9.368998 -12.001664 13.231588
RightToeBase -6.529770 -0.000000 0.000000
84
root 1.219135 33.327023 0.185779 9.283090 6.314334 5.918767
Spine -2.749929 -8.215329 -3.593869
Head 35.522351 12.196177 5.274861
LeftShoulder -25.279646 48.289898 0.510323
LeftArm 59.909498 -18.654793 -78.101038
LeftForeArm 5.256528 -0.000000 -3.463741
LeftHand 4.605565 -0.000000 4.564321
LeftHandThumb1 -26.253704 0.000000 33.147579
RightShoulder -10.682772 -10.670692 -20.230906
RightArm 6.638607 11.420062 68.166744
RightForeArm -3.849947 -0.000000 1.619879
RightHand 5.411535 0.000000 -1.103958
RightHandThumb1 -24.326973 -0.000000 -32.862282
LeftUpLeg -8.713425 -8.845096 3.463228
LeftLeg -0.189790 -0.000000 0.000000
LeftFoot 0.050230 11.418514 -17.927112
LeftToeBase -11.476413 -0.000000 0.000000
RightUpLeg -5.534423 1.603071 -6.638783
RightLeg 6.241241 -0.000000 -0.000000
RightFoot -9.560726 -12.049947 13.279462
RightToeBase -6.624587 -0.000000 0.000000
85
root 1.284194 33.319744 0.205179 9.265989 6.190598 5.869635
Spine -2.621937 -8.295789 -3.564375
Head 35.478321 11.935299 5.149508
LeftShoulder -25.109509 48.212897 0.456091
LeftArm 59.537997 -17.758753 -78.372049
LeftForeArm 5.136322 -0.000000 -3.428420
LeftHand 4.480926 -0.000000 4.479894
LeftHandThumb1 -26.253704 0.000000 33.147579
RightShoulder -10.649055 -10.798596 -20.098038
RightArm 6.606072 11.383774 69.198817
RightForeArm -3.522089 -0.000000 1.863062
RightHand 5.257951 -0.000000 -1.125774
RightHandThumb1 -24.326973 -0.000000 -32.862282
LeftUpLeg -8.999700 -8.683082 4.196859
LeftLeg -0.195299 -0.000000 0.000000
LeftFoot 0.656506 11.417515 -18.392070
LeftToeBase -11.017966 -0.000000 0.000000
RightUpLeg -5.725743 1.792329 -6.718185
RightLeg 6.704570 -0.000000 -0.000000
RightFoot -9.732254 -12.091483 13.308269
RightToeBase -6.730161 -0.000000 0.000000
86
root 1.353338 33.310638 0.225229 9.243052 6.034904 5.851423
Spine -2.471268 -8.371544 -3.594791
Head 35.387230 11.671944 5.034003
LeftShoulder -25.088223 48.264951 0.284448
LeftArm 59.397705 -16.891644 -78.712456
LeftForeArm 4.945293 -0.000000 -3.438567
LeftHand 4.509643 -0.000000 4.553243
LeftHandThumb1 -26.253704 0.000000 33.147579
RightShoulder -10.622661 -10.877467 -19.970723
RightArm 6.575236 11.327837 70.213747
RightForeArm -3.307403 0.000000 2.052009
RightHand 5.161037 -0.000000 -0.984630
RightHandThumb1 -24.326973 -0.000000 -32.862282
LeftUpLeg -9.272952 -8.414329 4.872071
LeftLeg -0.223216 -0.000000 0.000000
LeftFoot 1.343239 11.399940 -18.878051
LeftToeBase -10.611336 -0.000000 0.000000
RightUpLeg -5.919546 2.011931 -6.833349
RightLeg 7.191935 -0.000000 -0.000000
RightFoot -9.961374 -12.163800 13.357131
RightToeBase -6.702079 -0.000000 0.000000
87
root 1.424688 33.302619 0.246086 9.196408 5.828742 5.813862
Spine -2.320303 -8.415905 -3.604912
Head 35.337554 11.397514 4.867203
LeftShoulder -24.639772 47.868772 0.582705
LeftArm 58.617822 -16.035347 -79.008718
LeftForeArm 4.708124 -0.000000 -3.355892
LeftHand 4.545406 0.000000 4.556962
LeftHandThumb1 -26.253704 0.000000 33.147579
RightShoulder -10.544253 -10.964323 -19.889095
RightArm 6.539066 11.272862 71.244734
RightForeArm -2.899116 0.000000 2.233466
RightHand 5.350004 -0.000000 -0.785033
RightHandThumb1 -24.326973 -0.000000 -32.862282
LeftUpLeg -9.503367 -8.151143 5.556686
LeftLeg -0.281413 -0.000000 0.000000
LeftFoot 2.110020 11.474456 -19.355298
LeftToeBase -10.518774 -0.000000 0.000000
RightUpLeg -6.099457 2.220745 -6.946249
RightLeg 7.678412 -0.000000 -0.000000
RightFoot -10.148715 -12.153217 13.435734
RightToeBase -6.795327 -0.000000 0.000000
88
root 1.502056 33.295547 0.266326 9.171998 5.569773 5.834568
Spine -2.190106 -8.444636 -3.698576
Head 35.275648 11.108891 4.752407
LeftShoulder -24.649835 48.071832 0.348626
LeftArm 58.614284 -15.286264 -79.370284
LeftForeArm 4.456473 -0.000000 -3.301028
LeftHand 4.599165 -0.000000 4.612034
LeftHandThumb1 -26.253704 0.000000 33.147579
RightShoulder -10.496090 -11.048979 -19.760615
RightArm 6.566538 11.094843 72.221653
RightForeArm -2.408403 -0.000000 2.436486
RightHand 5.226625 -0.000000 -0.589048
RightHandThumb1 -24.326973 -0.000000 -32.862282
LeftUpLeg -9.748366 -7.804724 6.163266
LeftLeg -0.344651 -0.000000 0.000000
LeftFoot 3.014754 11.487797 -19.749383
LeftToeBase -10.059983 -0.000000 0.000000
RightUpLeg -6.301541 2.510246 -7.140943
RightLeg 8.166611 -0.000000 -0.000000
RightFoot -10.385739 -12.188583 13.510992
RightToeBase -6.697699 -0.000000 0.000000
89
root 1.586427 33.288122 0.290074 9.156924 5.271242 5.860827
Spine -2.092204 -8.439256 -3.799473
Head 35.225282 10.789945 4.626992
LeftShoulder -24.488760 48.130485 0.326976
LeftArm 58.423831 -14.621003 -79.849587
LeftForeArm 4.532733 -0.000000 -3.242172
LeftHand 4.408620 0.000000 4.055919
LeftHandThumb1 -26.253704 0.000000 33.147579
RightShoulder -10.466059 -11.126089 -19.648093
RightArm 6.611543 10.940935 73.185095
RightForeArm -1.835372 0.000000 2.614667
RightHand 5.010244 -0.000000 -0.249608
RightHandThumb1 -24.326973 -0.000000 -32.862282
LeftUpLeg -9.962345 -7.440756 6.742951
LeftLeg -0.466543 -0.000000 0.000000
LeftFoot 4.020893 11.541737 -20.038248
LeftToeBase -9.748538 -0.000000 0.000000
RightUpLeg -6.506777 2.808172 -7.357786
RightLeg 8.625487 -0.000000 -0.000000
RightFoot -10.588931 -12.165677 13.626232
RightToeBase -6.750846 -0.000000 0.000000
